<svg version="1.2" xmlns="http://www.w3.org/2000/svg" viewBox="0 0 33 33" width="33" height="33">
	<title>xc-svg</title>
	<style>
		.s0 { fill: #ffffff } 
	</style>
	<g id="Layer">
		<g id="Layer">
		</g>
	</g>
	<g id="Layer">
		<g id="Layer">
		</g>
	</g>
	<g id="Layer">
		<g id="Layer">
		</g>
	</g>
	<g id="Layer">
		<g id="Layer">
		</g>
	</g>
	<g id="Layer">
		<g id="Layer">
			<path id="s-Path_6-d1224" class="s0" d="m23.5 17.6c0 0-1.4-1.5-0.1-2.7 1.3-1.3 2.8 0 2.8 0l6.2 6.3c0 0 1.1 1.2-0.1 2.5-1.3 1.2-2.5 0.1-2.5 0.1z"/>
		</g>
	</g>
	<g id="Layer">
		<g id="Layer">
			<path id="s-Path_5-d1224" class="s0" d="m29.6 8.9c0 0 1.4-1.4 2.7-0.1 1.3 1.3-0.1 2.8-0.1 2.8l-6.3 6.2c0 0-1.2 1.1-2.5-0.2-1.2-1.3-0.1-2.4-0.1-2.4z"/>
		</g>
	</g>
	<g id="Layer">
		<g id="Layer">
			<path id="s-Path_2-d1224" class="s0" d="m13.6 9.2c0 0 1.4-1.4 2.7-0.2 1.3 1.3-0.1 2.8-0.1 2.8l-12.3 12.3c0 0-1.2 1.1-2.5-0.2-1.2-1.3-0.1-2.5-0.1-2.5z"/>
		</g>
	</g>
	<g id="Layer">
		<g id="Layer">
			<path id="s-Path_1-d1224" class="s0" d="m1.5 11.8c0 0-1.4-1.4-0.1-2.7 1.3-1.3 2.8 0.1 2.8 0.1l12.2 12.2c0 0 1.1 1.3-0.1 2.5-1.3 1.3-2.5 0.2-2.5 0.2z"/>
		</g>
	</g>
</svg>